<svg width="584" height="563" viewBox="0 0 584 563" fill="none" xmlns="http://www.w3.org/2000/svg">
<path d="M572.514 106.979C596.875 164.487 576.163 242.306 553.578 306.757C531.382 371.364 507.701 422.756 471.265 458.688C434.829 494.619 385.481 515.477 332.323 533.462C279.164 551.446 222.041 566.946 159.386 561.305C96.8876 555.276 29.2472 528.262 8.544 478.525C-11.9257 429.333 14.9304 357.573 21.3436 286.212C27.7567 214.852 14.4261 143.269 42.2308 100.735C70.0355 58.2017 139.364 44.8723 206.982 29.0565C274.754 12.8519 340.815 -5.83909 409.379 3.06298C477.787 12.3538 548.153 49.4712 572.514 106.979Z" fill="#1E78FF"/>
<path d="M572.514 106.979C596.875 164.487 576.163 242.306 553.578 306.757C531.382 371.364 507.701 422.756 471.265 458.688C434.829 494.619 385.481 515.477 332.323 533.462C279.164 551.446 222.041 566.946 159.386 561.305C96.8876 555.276 29.2472 528.262 8.544 478.525C-11.9257 429.333 14.9304 357.573 21.3436 286.212C27.7567 214.852 14.4261 143.269 42.2308 100.735C70.0355 58.2017 139.364 44.8723 206.982 29.0565C274.754 12.8519 340.815 -5.83909 409.379 3.06298C477.787 12.3538 548.153 49.4712 572.514 106.979Z" fill="url(#paint0_linear)"/>
<defs>
<linearGradient id="paint0_linear" x1="29.5188" y1="71.7862" x2="509.019" y2="528.286" gradientUnits="userSpaceOnUse">
<stop stop-color="#00409F"/>
<stop offset="0.0001" stop-color="#114DA6" stop-opacity="0.932292"/>
<stop offset="0.999371" stop-color="white" stop-opacity="0"/>
</linearGradient>
</defs>
</svg>
