<svg width="31" height="27" viewBox="0 0 31 27" fill="none" xmlns="http://www.w3.org/2000/svg">
<path d="M30.571 14.6944L20.2371 26.5049C19.3145 27.5594 17.7152 26.8213 17.7152 25.3098V18.5609H9.34967C8.53157 18.5609 7.87341 17.8087 7.87341 16.8737V10.1248C7.87341 9.18981 8.53157 8.43759 9.34967 8.43759H17.7152V1.68871C17.7152 0.184277 19.3083 -0.560911 20.2371 0.493601L30.571 12.3041C31.143 12.965 31.143 14.0335 30.571 14.6944ZM11.8101 26.1534V23.3414C11.8101 22.8774 11.478 22.4978 11.072 22.4978H5.90506C4.81631 22.4978 3.9367 21.4925 3.9367 20.2481V6.75037C3.9367 5.50605 4.81631 4.50075 5.90506 4.50075H11.072C11.478 4.50075 11.8101 4.12112 11.8101 3.65714V0.845105C11.8101 0.38112 11.478 0.00149521 11.072 0.00149521H5.90506C2.64497 0.00149521 0 3.02443 0 6.75037V20.2481C0 23.9741 2.64497 26.997 5.90506 26.997H11.072C11.478 26.997 11.8101 26.6174 11.8101 26.1534Z" fill="#F4F4F4"/>
</svg>
