<svg width="33" height="48" viewBox="0 0 33 48" fill="none" xmlns="http://www.w3.org/2000/svg">
<path d="M9.00562 42.5945C9.00656 43.1842 9.18094 43.7617 9.50813 44.2529L11.1103 46.6613C11.384 47.073 11.7552 47.4106 12.191 47.6442C12.6267 47.8778 13.1134 48 13.6078 48H19.3931C19.8875 48 20.3742 47.8778 20.81 47.6442C21.2457 47.4106 21.6169 47.073 21.8906 46.6613L23.4928 44.2529C23.8199 43.7616 23.9947 43.1847 23.9953 42.5945L23.9991 38.9993H9.00094L9.00562 42.5945ZM0 16.4997C0 20.6593 1.54219 24.4542 4.08375 27.3539C5.6325 29.121 8.055 32.8128 8.97844 35.9271C8.98219 35.9515 8.985 35.9759 8.98875 36.0003H24.0112C24.015 35.9759 24.0178 35.9524 24.0216 35.9271C24.945 32.8128 27.3675 29.121 28.9163 27.3539C31.4578 24.4542 33 20.6593 33 16.4997C33 7.36961 25.5853 -0.0280445 16.4484 7.99275e-05C6.885 0.0291418 0 7.77835 0 16.4997ZM16.5 8.99989C12.3647 8.99989 9 12.3645 9 16.4997C9 17.3285 8.32875 17.9997 7.5 17.9997C6.67125 17.9997 6 17.3285 6 16.4997C6 10.7099 10.71 5.99995 16.5 5.99995C17.3288 5.99995 18 6.67119 18 7.49992C18 8.32865 17.3288 8.99989 16.5 8.99989Z" fill="#F4F4F4"/>
</svg>
