<svg width="226" height="37" viewBox="0 0 226 37" fill="none" xmlns="http://www.w3.org/2000/svg">
<path d="M27.3125 30V7.25H35.1094C37.6823 7.25 39.6406 7.76562 40.9844 8.79688C42.3281 9.82812 43 11.3646 43 13.4062C43 14.4479 42.7188 15.3854 42.1562 16.2188C41.5938 17.0521 40.7708 17.6979 39.6875 18.1562C40.9167 18.4896 41.8646 19.1198 42.5312 20.0469C43.2083 20.9635 43.5469 22.0677 43.5469 23.3594C43.5469 25.4948 42.8594 27.1354 41.4844 28.2812C40.1198 29.4271 38.1615 30 35.6094 30H27.3125ZM31.2656 19.7344V26.8438H35.6562C36.8958 26.8438 37.8646 26.5365 38.5625 25.9219C39.2604 25.3073 39.6094 24.4531 39.6094 23.3594C39.6094 20.9948 38.401 19.7865 35.9844 19.7344H31.2656ZM31.2656 16.8281H35.1406C36.3698 16.8281 37.3281 16.5521 38.0156 16C38.7135 15.4375 39.0625 14.6458 39.0625 13.625C39.0625 12.5 38.7396 11.6875 38.0938 11.1875C37.4583 10.6875 36.4635 10.4375 35.1094 10.4375H31.2656V16.8281Z" fill="#1E78FF"/>
<path d="M55.4375 14.6875C55.0417 14.6146 54.6198 14.5781 54.1719 14.5781C53.0052 14.5781 52.0156 14.9062 51.2031 15.5625C50.401 16.2083 49.8281 17.151 49.4844 18.3906V30H47.625V13.0938H49.4531L49.4844 15.7812C50.474 13.7812 52.0625 12.7812 54.25 12.7812C54.7708 12.7812 55.1823 12.849 55.4844 12.9844L55.4375 14.6875ZM60.5 30H58.625V13.0938H60.5V30ZM58.2969 8.20312C58.2969 7.84896 58.4115 7.55208 58.6406 7.3125C58.8698 7.0625 59.1823 6.9375 59.5781 6.9375C59.974 6.9375 60.2865 7.0625 60.5156 7.3125C60.7552 7.55208 60.875 7.84896 60.875 8.20312C60.875 8.55729 60.7552 8.85417 60.5156 9.09375C60.2865 9.33333 59.974 9.45312 59.5781 9.45312C59.1823 9.45312 58.8698 9.33333 58.6406 9.09375C58.4115 8.85417 58.2969 8.55729 58.2969 8.20312ZM64.8438 21.3906C64.8438 18.7448 65.4271 16.651 66.5938 15.1094C67.7708 13.5573 69.3646 12.7812 71.375 12.7812C73.6771 12.7812 75.4271 13.6979 76.625 15.5312L76.7188 13.0938H78.4688V29.6562C78.4688 31.8333 77.8594 33.5573 76.6406 34.8281C75.4219 36.099 73.7708 36.7344 71.6875 36.7344C70.5104 36.7344 69.3854 36.4688 68.3125 35.9375C67.25 35.4167 66.4115 34.7188 65.7969 33.8438L66.8438 32.7188C68.1667 34.3438 69.7396 35.1562 71.5625 35.1562C73.125 35.1562 74.3438 34.6927 75.2188 33.7656C76.0938 32.849 76.5469 31.5729 76.5781 29.9375V27.8125C75.3802 29.4792 73.6354 30.3125 71.3438 30.3125C69.3854 30.3125 67.8125 29.5312 66.625 27.9688C65.4375 26.4062 64.8438 24.2969 64.8438 21.6406V21.3906ZM66.7344 21.7188C66.7344 23.875 67.1667 25.5781 68.0312 26.8281C68.8958 28.0677 70.1146 28.6875 71.6875 28.6875C73.9896 28.6875 75.6198 27.6562 76.5781 25.5938V17.7344C76.1406 16.651 75.5104 15.8281 74.6875 15.2656C73.8646 14.6927 72.875 14.4062 71.7188 14.4062C70.1458 14.4062 68.9219 15.026 68.0469 16.2656C67.1719 17.4948 66.7344 19.3125 66.7344 21.7188ZM86.25 8.76562V13.0938H89.75V14.625H86.25V25.8906C86.25 26.8281 86.4167 27.526 86.75 27.9844C87.0938 28.4427 87.6615 28.6719 88.4531 28.6719C88.7656 28.6719 89.2708 28.6198 89.9688 28.5156L90.0469 30.0469C89.5573 30.224 88.8906 30.3125 88.0469 30.3125C86.7656 30.3125 85.8333 29.9427 85.25 29.2031C84.6667 28.4531 84.375 27.3542 84.375 25.9062V14.625H81.2656V13.0938H84.375V8.76562H86.25ZM95.4844 15.9531C96.099 14.9427 96.8854 14.1615 97.8438 13.6094C98.8021 13.0573 99.849 12.7812 100.984 12.7812C102.797 12.7812 104.146 13.2917 105.031 14.3125C105.917 15.3333 106.365 16.8646 106.375 18.9062V30H104.516V18.8906C104.505 17.3802 104.182 16.2552 103.547 15.5156C102.922 14.776 101.917 14.4062 100.531 14.4062C99.375 14.4062 98.349 14.7708 97.4531 15.5C96.5677 16.2188 95.9115 17.1927 95.4844 18.4219V30H93.625V6H95.4844V15.9531Z" fill="#4D4D4D"/>
<path d="M115.438 7.25L122 24.6875L128.547 7.25H133.656V30H129.719V22.5L130.109 12.4688L123.391 30H120.562L113.859 12.4844L114.25 22.5V30H110.312V7.25H115.438Z" fill="#1E78FF"/>
<path d="M145.016 30.3125C143.578 30.3125 142.276 29.9583 141.109 29.25C139.953 28.5417 139.052 27.5573 138.406 26.2969C137.76 25.026 137.438 23.6042 137.438 22.0312V21.3594C137.438 19.7344 137.75 18.2708 138.375 16.9688C139.01 15.6667 139.891 14.6458 141.016 13.9062C142.141 13.1562 143.359 12.7812 144.672 12.7812C146.724 12.7812 148.349 13.4844 149.547 14.8906C150.755 16.2865 151.359 18.1979 151.359 20.625V21.6719H139.297V22.0312C139.297 23.9479 139.844 25.5469 140.938 26.8281C142.042 28.099 143.427 28.7344 145.094 28.7344C146.094 28.7344 146.974 28.5521 147.734 28.1875C148.505 27.8229 149.203 27.2396 149.828 26.4375L151 27.3281C149.625 29.3177 147.63 30.3125 145.016 30.3125ZM144.672 14.375C143.266 14.375 142.078 14.8906 141.109 15.9219C140.151 16.9531 139.568 18.3385 139.359 20.0781H149.5V19.875C149.448 18.25 148.984 16.9271 148.109 15.9062C147.234 14.8854 146.089 14.375 144.672 14.375ZM156.703 13.0938L156.766 15.8438C157.391 14.8229 158.172 14.0573 159.109 13.5469C160.047 13.0365 161.089 12.7812 162.234 12.7812C164.901 12.7812 166.594 13.875 167.312 16.0625C167.917 15.0104 168.724 14.2031 169.734 13.6406C170.745 13.0677 171.859 12.7812 173.078 12.7812C176.703 12.7812 178.552 14.7604 178.625 18.7188V30H176.75V18.8594C176.74 17.349 176.411 16.2292 175.766 15.5C175.13 14.7708 174.089 14.4062 172.641 14.4062C171.297 14.4271 170.161 14.8646 169.234 15.7188C168.307 16.5625 167.792 17.5938 167.688 18.8125V30H165.812V18.7188C165.802 17.2708 165.458 16.1927 164.781 15.4844C164.115 14.7656 163.083 14.4062 161.688 14.4062C160.51 14.4062 159.5 14.7448 158.656 15.4219C157.812 16.0885 157.188 17.0833 156.781 18.4062V30H154.906V13.0938H156.703ZM182.344 21.2969C182.344 19.6719 182.656 18.2083 183.281 16.9062C183.917 15.6042 184.807 14.5938 185.953 13.875C187.109 13.1458 188.417 12.7812 189.875 12.7812C192.125 12.7812 193.948 13.5729 195.344 15.1562C196.74 16.7292 197.438 18.8177 197.438 21.4219V21.8125C197.438 23.4479 197.12 24.9219 196.484 26.2344C195.859 27.5365 194.974 28.5417 193.828 29.25C192.682 29.9583 191.375 30.3125 189.906 30.3125C187.667 30.3125 185.844 29.526 184.438 27.9531C183.042 26.3698 182.344 24.276 182.344 21.6719V21.2969ZM184.219 21.8125C184.219 23.8333 184.74 25.4948 185.781 26.7969C186.833 28.0885 188.208 28.7344 189.906 28.7344C191.594 28.7344 192.958 28.0885 194 26.7969C195.052 25.4948 195.578 23.7812 195.578 21.6562V21.2969C195.578 20.0052 195.339 18.8229 194.859 17.75C194.38 16.6771 193.708 15.849 192.844 15.2656C191.979 14.6719 190.99 14.375 189.875 14.375C188.208 14.375 186.849 15.0312 185.797 16.3438C184.745 17.6458 184.219 19.3542 184.219 21.4688V21.8125ZM209.125 14.6875C208.729 14.6146 208.307 14.5781 207.859 14.5781C206.693 14.5781 205.703 14.9062 204.891 15.5625C204.089 16.2083 203.516 17.151 203.172 18.3906V30H201.312V13.0938H203.141L203.172 15.7812C204.161 13.7812 205.75 12.7812 207.938 12.7812C208.458 12.7812 208.87 12.849 209.172 12.9844L209.125 14.6875ZM217.734 27.3125L222.672 13.0938H224.688L217.469 32.875L217.094 33.75C216.167 35.8021 214.734 36.8281 212.797 36.8281C212.349 36.8281 211.87 36.7552 211.359 36.6094L211.344 35.0625L212.312 35.1562C213.229 35.1562 213.969 34.9271 214.531 34.4688C215.104 34.0208 215.589 33.2448 215.984 32.1406L216.812 29.8594L210.438 13.0938H212.484L217.734 27.3125Z" fill="#4D4D4D"/>
<path d="M6.00375 29.3963C6.00437 29.7894 6.12063 30.1744 6.33875 30.5019L7.40688 32.1075C7.58934 32.382 7.83683 32.6071 8.12732 32.7628C8.41781 32.9185 8.74228 33 9.07187 33H12.9288C13.2583 33 13.5828 32.9185 13.8733 32.7628C14.1638 32.6071 14.4113 32.382 14.5938 32.1075L15.6619 30.5019C15.8799 30.1744 15.9964 29.7898 15.9969 29.3963L15.9994 26.9995H6.00063L6.00375 29.3963ZM0 11.9998C0 14.7729 1.02813 17.3028 2.7225 19.2359C3.755 20.414 5.37 22.8752 5.98562 24.9514C5.98812 24.9677 5.99 24.9839 5.9925 25.0002H16.0075C16.01 24.9839 16.0119 24.9683 16.0144 24.9514C16.63 22.8752 18.245 20.414 19.2775 19.2359C20.9719 17.3028 22 14.7729 22 11.9998C22 5.91307 17.0569 0.981304 10.9656 1.00005C4.59 1.01943 0 6.18557 0 11.9998ZM11 6.99993C8.24312 6.99993 6 9.243 6 11.9998C6 12.5523 5.5525 12.9998 5 12.9998C4.4475 12.9998 4 12.5523 4 11.9998C4 8.1399 7.14 4.99997 11 4.99997C11.5525 4.99997 12 5.44746 12 5.99995C12 6.55244 11.5525 6.99993 11 6.99993Z" fill="#1E78FF"/>
</svg>
